<mxfile host="Electron" agent="Mozilla/5.0 (Windows NT 10.0; Win64; x64) AppleWebKit/537.36 (KHTML, like Gecko) draw.io/26.2.2 Chrome/134.0.6998.178 Electron/35.1.2 Safari/537.36" version="26.2.2">
  <diagram name="페이지-1" id="zeogqS7mXL-11dX4bwe9">
    <mxGraphModel dx="1092" dy="825" grid="1" gridSize="10" guides="1" tooltips="1" connect="1" arrows="1" fold="1" page="1" pageScale="1" pageWidth="827" pageHeight="1169" math="0" shadow="0">
      <root>
        <mxCell id="0" />
        <mxCell id="1" parent="0" />
        <mxCell id="QGpiDjwZLeCe2qHofe9P-7" style="edgeStyle=orthogonalEdgeStyle;rounded=0;orthogonalLoop=1;jettySize=auto;html=1;exitX=0.5;exitY=1;exitDx=0;exitDy=0;entryX=0.5;entryY=0;entryDx=0;entryDy=0;" parent="1" source="QGpiDjwZLeCe2qHofe9P-1" target="QGpiDjwZLeCe2qHofe9P-2" edge="1">
          <mxGeometry relative="1" as="geometry" />
        </mxCell>
        <mxCell id="QGpiDjwZLeCe2qHofe9P-1" value="시작" style="ellipse;whiteSpace=wrap;html=1;" parent="1" vertex="1">
          <mxGeometry x="340" y="420" width="120" height="80" as="geometry" />
        </mxCell>
        <mxCell id="QGpiDjwZLeCe2qHofe9P-8" style="edgeStyle=orthogonalEdgeStyle;rounded=0;orthogonalLoop=1;jettySize=auto;html=1;exitX=0.5;exitY=1;exitDx=0;exitDy=0;entryX=0.5;entryY=0;entryDx=0;entryDy=0;" parent="1" source="QGpiDjwZLeCe2qHofe9P-2" target="QGpiDjwZLeCe2qHofe9P-3" edge="1">
          <mxGeometry relative="1" as="geometry" />
        </mxCell>
        <mxCell id="QGpiDjwZLeCe2qHofe9P-2" value="국어, 영어, 수학&lt;div&gt;점수 생성&lt;/div&gt;&lt;div&gt;{국,영,수:점수들}&lt;/div&gt;" style="rounded=0;whiteSpace=wrap;html=1;" parent="1" vertex="1">
          <mxGeometry x="340" y="540" width="120" height="60" as="geometry" />
        </mxCell>
        <mxCell id="QGpiDjwZLeCe2qHofe9P-9" style="edgeStyle=orthogonalEdgeStyle;rounded=0;orthogonalLoop=1;jettySize=auto;html=1;exitX=0.5;exitY=1;exitDx=0;exitDy=0;" parent="1" source="QGpiDjwZLeCe2qHofe9P-3" target="QGpiDjwZLeCe2qHofe9P-4" edge="1">
          <mxGeometry relative="1" as="geometry" />
        </mxCell>
        <mxCell id="QGpiDjwZLeCe2qHofe9P-3" value="학생 번호 생성&lt;div&gt;{학생번호:{국,영,수}}&lt;/div&gt;" style="rounded=0;whiteSpace=wrap;html=1;" parent="1" vertex="1">
          <mxGeometry x="340" y="640" width="120" height="60" as="geometry" />
        </mxCell>
        <mxCell id="QGpiDjwZLeCe2qHofe9P-10" style="edgeStyle=orthogonalEdgeStyle;rounded=0;orthogonalLoop=1;jettySize=auto;html=1;exitX=0.5;exitY=1;exitDx=0;exitDy=0;entryX=0.5;entryY=0;entryDx=0;entryDy=0;" parent="1" source="QGpiDjwZLeCe2qHofe9P-4" target="QGpiDjwZLeCe2qHofe9P-5" edge="1">
          <mxGeometry relative="1" as="geometry" />
        </mxCell>
        <mxCell id="QGpiDjwZLeCe2qHofe9P-4" value="반 생성&lt;div&gt;{반:학생번호}&lt;/div&gt;" style="rounded=0;whiteSpace=wrap;html=1;" parent="1" vertex="1">
          <mxGeometry x="340" y="740" width="120" height="60" as="geometry" />
        </mxCell>
        <mxCell id="QGpiDjwZLeCe2qHofe9P-11" style="edgeStyle=orthogonalEdgeStyle;rounded=0;orthogonalLoop=1;jettySize=auto;html=1;exitX=0.5;exitY=1;exitDx=0;exitDy=0;" parent="1" source="QGpiDjwZLeCe2qHofe9P-5" target="QGpiDjwZLeCe2qHofe9P-6" edge="1">
          <mxGeometry relative="1" as="geometry" />
        </mxCell>
        <mxCell id="QGpiDjwZLeCe2qHofe9P-5" value="학년 생성&lt;div&gt;{학년: 반}&lt;/div&gt;" style="rounded=0;whiteSpace=wrap;html=1;" parent="1" vertex="1">
          <mxGeometry x="340" y="840" width="120" height="60" as="geometry" />
        </mxCell>
        <mxCell id="QGpiDjwZLeCe2qHofe9P-13" style="edgeStyle=orthogonalEdgeStyle;rounded=0;orthogonalLoop=1;jettySize=auto;html=1;exitX=0.5;exitY=1;exitDx=0;exitDy=0;entryX=0.5;entryY=0;entryDx=0;entryDy=0;" parent="1" source="QGpiDjwZLeCe2qHofe9P-6" edge="1">
          <mxGeometry relative="1" as="geometry">
            <mxPoint x="400" y="1050" as="targetPoint" />
          </mxGeometry>
        </mxCell>
        <mxCell id="QGpiDjwZLeCe2qHofe9P-55" style="edgeStyle=orthogonalEdgeStyle;rounded=0;orthogonalLoop=1;jettySize=auto;html=1;exitX=1;exitY=0.5;exitDx=0;exitDy=0;entryX=0;entryY=0.5;entryDx=0;entryDy=0;" parent="1" source="QGpiDjwZLeCe2qHofe9P-6" target="QGpiDjwZLeCe2qHofe9P-54" edge="1">
          <mxGeometry relative="1" as="geometry" />
        </mxCell>
        <mxCell id="QGpiDjwZLeCe2qHofe9P-58" style="edgeStyle=orthogonalEdgeStyle;rounded=0;orthogonalLoop=1;jettySize=auto;html=1;exitX=0;exitY=0.5;exitDx=0;exitDy=0;entryX=1;entryY=0.5;entryDx=0;entryDy=0;" parent="1" source="QGpiDjwZLeCe2qHofe9P-6" target="QGpiDjwZLeCe2qHofe9P-53" edge="1">
          <mxGeometry relative="1" as="geometry" />
        </mxCell>
        <mxCell id="QGpiDjwZLeCe2qHofe9P-6" value="학교 내에 삽입&lt;div&gt;{학교 : 학년}&lt;/div&gt;" style="rounded=0;whiteSpace=wrap;html=1;" parent="1" vertex="1">
          <mxGeometry x="340" y="944.5" width="120" height="60" as="geometry" />
        </mxCell>
        <mxCell id="QGpiDjwZLeCe2qHofe9P-56" style="edgeStyle=orthogonalEdgeStyle;rounded=0;orthogonalLoop=1;jettySize=auto;html=1;exitX=0.5;exitY=1;exitDx=0;exitDy=0;entryX=0.5;entryY=0;entryDx=0;entryDy=0;" parent="1" source="QGpiDjwZLeCe2qHofe9P-14" target="QGpiDjwZLeCe2qHofe9P-54" edge="1">
          <mxGeometry relative="1" as="geometry" />
        </mxCell>
        <mxCell id="QGpiDjwZLeCe2qHofe9P-14" value="시작" style="ellipse;whiteSpace=wrap;html=1;" parent="1" vertex="1">
          <mxGeometry x="610" y="420" width="120" height="80" as="geometry" />
        </mxCell>
        <mxCell id="QGpiDjwZLeCe2qHofe9P-24" style="edgeStyle=orthogonalEdgeStyle;rounded=0;orthogonalLoop=1;jettySize=auto;html=1;exitX=0.5;exitY=1;exitDx=0;exitDy=0;entryX=0.5;entryY=0;entryDx=0;entryDy=0;" parent="1" source="QGpiDjwZLeCe2qHofe9P-16" edge="1">
          <mxGeometry relative="1" as="geometry">
            <mxPoint x="670" y="730" as="targetPoint" />
          </mxGeometry>
        </mxCell>
        <mxCell id="QGpiDjwZLeCe2qHofe9P-16" value="학년 입력&lt;div&gt;과목 입력&lt;/div&gt;" style="shape=parallelogram;perimeter=parallelogramPerimeter;whiteSpace=wrap;html=1;fixedSize=1;" parent="1" vertex="1">
          <mxGeometry x="610" y="640" width="120" height="60" as="geometry" />
        </mxCell>
        <mxCell id="QGpiDjwZLeCe2qHofe9P-51" style="edgeStyle=orthogonalEdgeStyle;rounded=0;orthogonalLoop=1;jettySize=auto;html=1;exitX=0.5;exitY=1;exitDx=0;exitDy=0;" parent="1" source="QGpiDjwZLeCe2qHofe9P-19" target="QGpiDjwZLeCe2qHofe9P-40" edge="1">
          <mxGeometry relative="1" as="geometry" />
        </mxCell>
        <mxCell id="QGpiDjwZLeCe2qHofe9P-19" value="점수, 과목, 학생 번호&lt;div&gt;모든 데이터를 저장&lt;/div&gt;" style="rounded=0;whiteSpace=wrap;html=1;" parent="1" vertex="1">
          <mxGeometry x="610" y="950" width="120" height="60" as="geometry" />
        </mxCell>
        <mxCell id="QGpiDjwZLeCe2qHofe9P-49" style="edgeStyle=orthogonalEdgeStyle;rounded=0;orthogonalLoop=1;jettySize=auto;html=1;exitX=0.5;exitY=1;exitDx=0;exitDy=0;entryX=0.5;entryY=0;entryDx=0;entryDy=0;" parent="1" source="QGpiDjwZLeCe2qHofe9P-20" target="QGpiDjwZLeCe2qHofe9P-32" edge="1">
          <mxGeometry relative="1" as="geometry" />
        </mxCell>
        <mxCell id="QGpiDjwZLeCe2qHofe9P-20" value="해당 변수를 연산" style="rounded=0;whiteSpace=wrap;html=1;" parent="1" vertex="1">
          <mxGeometry x="610" y="1280" width="120" height="60" as="geometry" />
        </mxCell>
        <mxCell id="QGpiDjwZLeCe2qHofe9P-35" style="edgeStyle=orthogonalEdgeStyle;rounded=0;orthogonalLoop=1;jettySize=auto;html=1;exitX=0.5;exitY=1;exitDx=0;exitDy=0;" parent="1" source="QGpiDjwZLeCe2qHofe9P-32" target="QGpiDjwZLeCe2qHofe9P-34" edge="1">
          <mxGeometry relative="1" as="geometry" />
        </mxCell>
        <mxCell id="QGpiDjwZLeCe2qHofe9P-32" value="출력" style="rounded=0;whiteSpace=wrap;html=1;" parent="1" vertex="1">
          <mxGeometry x="610" y="1390" width="120" height="60" as="geometry" />
        </mxCell>
        <mxCell id="QGpiDjwZLeCe2qHofe9P-34" value="종료" style="ellipse;whiteSpace=wrap;html=1;" parent="1" vertex="1">
          <mxGeometry x="610" y="1500" width="120" height="80" as="geometry" />
        </mxCell>
        <mxCell id="QGpiDjwZLeCe2qHofe9P-39" value="Yes" style="edgeStyle=orthogonalEdgeStyle;rounded=0;orthogonalLoop=1;jettySize=auto;html=1;exitX=0.5;exitY=1;exitDx=0;exitDy=0;entryX=0.5;entryY=0;entryDx=0;entryDy=0;" parent="1" source="QGpiDjwZLeCe2qHofe9P-36" target="QGpiDjwZLeCe2qHofe9P-38" edge="1">
          <mxGeometry relative="1" as="geometry" />
        </mxCell>
        <mxCell id="QGpiDjwZLeCe2qHofe9P-44" value="No" style="edgeStyle=orthogonalEdgeStyle;rounded=0;orthogonalLoop=1;jettySize=auto;html=1;exitX=0;exitY=0.5;exitDx=0;exitDy=0;entryX=0;entryY=0.5;entryDx=0;entryDy=0;" parent="1" source="QGpiDjwZLeCe2qHofe9P-36" target="QGpiDjwZLeCe2qHofe9P-16" edge="1">
          <mxGeometry relative="1" as="geometry">
            <Array as="points">
              <mxPoint x="570" y="770" />
              <mxPoint x="570" y="670" />
            </Array>
          </mxGeometry>
        </mxCell>
        <mxCell id="QGpiDjwZLeCe2qHofe9P-36" value="학년?" style="rhombus;whiteSpace=wrap;html=1;" parent="1" vertex="1">
          <mxGeometry x="630" y="730" width="80" height="80" as="geometry" />
        </mxCell>
        <mxCell id="QGpiDjwZLeCe2qHofe9P-42" style="edgeStyle=orthogonalEdgeStyle;rounded=0;orthogonalLoop=1;jettySize=auto;html=1;exitX=0.5;exitY=1;exitDx=0;exitDy=0;entryX=0.5;entryY=0;entryDx=0;entryDy=0;" parent="1" source="QGpiDjwZLeCe2qHofe9P-38" target="QGpiDjwZLeCe2qHofe9P-19" edge="1">
          <mxGeometry relative="1" as="geometry" />
        </mxCell>
        <mxCell id="QGpiDjwZLeCe2qHofe9P-38" value="학년을 key로&lt;div&gt;&lt;span style=&quot;background-color: transparent; color: light-dark(rgb(0, 0, 0), rgb(255, 255, 255));&quot;&gt;해당 데이터를 반에&lt;/span&gt;&lt;/div&gt;&lt;div&gt;&lt;span style=&quot;background-color: transparent; color: light-dark(rgb(0, 0, 0), rgb(255, 255, 255));&quot;&gt;저장&amp;nbsp;&lt;/span&gt;&lt;/div&gt;" style="rounded=0;whiteSpace=wrap;html=1;" parent="1" vertex="1">
          <mxGeometry x="610" y="850" width="120" height="60" as="geometry" />
        </mxCell>
        <mxCell id="QGpiDjwZLeCe2qHofe9P-47" value="Yes" style="edgeStyle=orthogonalEdgeStyle;rounded=0;orthogonalLoop=1;jettySize=auto;html=1;exitX=0.5;exitY=1;exitDx=0;exitDy=0;entryX=0.5;entryY=0;entryDx=0;entryDy=0;" parent="1" source="QGpiDjwZLeCe2qHofe9P-40" target="QGpiDjwZLeCe2qHofe9P-46" edge="1">
          <mxGeometry relative="1" as="geometry">
            <Array as="points">
              <mxPoint x="670" y="1260" />
            </Array>
          </mxGeometry>
        </mxCell>
        <mxCell id="QGpiDjwZLeCe2qHofe9P-50" value="No" style="edgeStyle=orthogonalEdgeStyle;rounded=0;orthogonalLoop=1;jettySize=auto;html=1;exitX=1;exitY=0.5;exitDx=0;exitDy=0;entryX=1;entryY=0.5;entryDx=0;entryDy=0;" parent="1" source="QGpiDjwZLeCe2qHofe9P-40" target="QGpiDjwZLeCe2qHofe9P-16" edge="1">
          <mxGeometry relative="1" as="geometry">
            <Array as="points">
              <mxPoint x="800" y="1090" />
              <mxPoint x="800" y="670" />
            </Array>
          </mxGeometry>
        </mxCell>
        <mxCell id="QGpiDjwZLeCe2qHofe9P-40" value="과목키와&amp;nbsp;&lt;div&gt;일치하는값?&lt;/div&gt;" style="rhombus;whiteSpace=wrap;html=1;" parent="1" vertex="1">
          <mxGeometry x="630" y="1050" width="80" height="80" as="geometry" />
        </mxCell>
        <mxCell id="QGpiDjwZLeCe2qHofe9P-48" style="edgeStyle=orthogonalEdgeStyle;rounded=0;orthogonalLoop=1;jettySize=auto;html=1;exitX=0.5;exitY=1;exitDx=0;exitDy=0;entryX=0.5;entryY=0;entryDx=0;entryDy=0;" parent="1" source="QGpiDjwZLeCe2qHofe9P-46" target="QGpiDjwZLeCe2qHofe9P-20" edge="1">
          <mxGeometry relative="1" as="geometry" />
        </mxCell>
        <mxCell id="QGpiDjwZLeCe2qHofe9P-46" value="별도 변수에&amp;nbsp;&lt;div&gt;매칭값 저장&lt;/div&gt;" style="rounded=0;whiteSpace=wrap;html=1;" parent="1" vertex="1">
          <mxGeometry x="610" y="1170" width="120" height="60" as="geometry" />
        </mxCell>
        <mxCell id="QGpiDjwZLeCe2qHofe9P-59" style="edgeStyle=orthogonalEdgeStyle;rounded=0;orthogonalLoop=1;jettySize=auto;html=1;exitX=0.5;exitY=1;exitDx=0;exitDy=0;entryX=0.5;entryY=0;entryDx=0;entryDy=0;" parent="1" source="QGpiDjwZLeCe2qHofe9P-52" target="QGpiDjwZLeCe2qHofe9P-53" edge="1">
          <mxGeometry relative="1" as="geometry" />
        </mxCell>
        <mxCell id="QGpiDjwZLeCe2qHofe9P-52" value="시작" style="ellipse;whiteSpace=wrap;html=1;" parent="1" vertex="1">
          <mxGeometry x="100" y="420" width="120" height="80" as="geometry" />
        </mxCell>
        <mxCell id="QGpiDjwZLeCe2qHofe9P-61" style="edgeStyle=orthogonalEdgeStyle;rounded=0;orthogonalLoop=1;jettySize=auto;html=1;exitX=0.5;exitY=1;exitDx=0;exitDy=0;entryX=0.5;entryY=0;entryDx=0;entryDy=0;" parent="1" source="QGpiDjwZLeCe2qHofe9P-53" target="QGpiDjwZLeCe2qHofe9P-60" edge="1">
          <mxGeometry relative="1" as="geometry" />
        </mxCell>
        <mxCell id="QGpiDjwZLeCe2qHofe9P-53" value="학교 데이터 호출" style="rounded=0;whiteSpace=wrap;html=1;" parent="1" vertex="1">
          <mxGeometry x="100" y="540" width="120" height="60" as="geometry" />
        </mxCell>
        <mxCell id="QGpiDjwZLeCe2qHofe9P-57" style="edgeStyle=orthogonalEdgeStyle;rounded=0;orthogonalLoop=1;jettySize=auto;html=1;exitX=0.5;exitY=1;exitDx=0;exitDy=0;" parent="1" source="QGpiDjwZLeCe2qHofe9P-54" target="QGpiDjwZLeCe2qHofe9P-16" edge="1">
          <mxGeometry relative="1" as="geometry" />
        </mxCell>
        <mxCell id="QGpiDjwZLeCe2qHofe9P-54" value="학교 데이터 호출" style="rounded=0;whiteSpace=wrap;html=1;" parent="1" vertex="1">
          <mxGeometry x="610" y="540" width="120" height="60" as="geometry" />
        </mxCell>
        <mxCell id="QGpiDjwZLeCe2qHofe9P-63" style="edgeStyle=orthogonalEdgeStyle;rounded=0;orthogonalLoop=1;jettySize=auto;html=1;exitX=0.5;exitY=1;exitDx=0;exitDy=0;entryX=0.5;entryY=0;entryDx=0;entryDy=0;" parent="1" source="QGpiDjwZLeCe2qHofe9P-60" target="QGpiDjwZLeCe2qHofe9P-62" edge="1">
          <mxGeometry relative="1" as="geometry" />
        </mxCell>
        <mxCell id="QGpiDjwZLeCe2qHofe9P-60" value="모든 데이터를&amp;nbsp; 가져와&lt;div&gt;과목 별로 각 리스트에&lt;/div&gt;&lt;div&gt;저장&lt;/div&gt;" style="rounded=0;whiteSpace=wrap;html=1;" parent="1" vertex="1">
          <mxGeometry x="100" y="640" width="120" height="60" as="geometry" />
        </mxCell>
        <mxCell id="QGpiDjwZLeCe2qHofe9P-65" style="edgeStyle=orthogonalEdgeStyle;rounded=0;orthogonalLoop=1;jettySize=auto;html=1;exitX=0.5;exitY=1;exitDx=0;exitDy=0;entryX=0.5;entryY=0;entryDx=0;entryDy=0;" parent="1" source="QGpiDjwZLeCe2qHofe9P-62" target="QGpiDjwZLeCe2qHofe9P-64" edge="1">
          <mxGeometry relative="1" as="geometry" />
        </mxCell>
        <mxCell id="QGpiDjwZLeCe2qHofe9P-62" value="연산" style="rounded=0;whiteSpace=wrap;html=1;" parent="1" vertex="1">
          <mxGeometry x="100" y="740" width="120" height="60" as="geometry" />
        </mxCell>
        <mxCell id="QGpiDjwZLeCe2qHofe9P-67" style="edgeStyle=orthogonalEdgeStyle;rounded=0;orthogonalLoop=1;jettySize=auto;html=1;exitX=0.5;exitY=1;exitDx=0;exitDy=0;entryX=0.5;entryY=0;entryDx=0;entryDy=0;" parent="1" source="QGpiDjwZLeCe2qHofe9P-64" target="QGpiDjwZLeCe2qHofe9P-66" edge="1">
          <mxGeometry relative="1" as="geometry" />
        </mxCell>
        <mxCell id="QGpiDjwZLeCe2qHofe9P-64" value="출력" style="rounded=0;whiteSpace=wrap;html=1;" parent="1" vertex="1">
          <mxGeometry x="100" y="840" width="120" height="60" as="geometry" />
        </mxCell>
        <mxCell id="QGpiDjwZLeCe2qHofe9P-66" value="종료" style="ellipse;whiteSpace=wrap;html=1;" parent="1" vertex="1">
          <mxGeometry x="100" y="940" width="120" height="80" as="geometry" />
        </mxCell>
        <mxCell id="QGpiDjwZLeCe2qHofe9P-68" value="학교 성적표" style="text;html=1;align=center;verticalAlign=middle;whiteSpace=wrap;rounded=0;" parent="1" vertex="1">
          <mxGeometry x="355" y="380" width="90" height="30" as="geometry" />
        </mxCell>
        <mxCell id="QGpiDjwZLeCe2qHofe9P-69" value="과목, 학년 평균" style="text;html=1;align=center;verticalAlign=middle;whiteSpace=wrap;rounded=0;" parent="1" vertex="1">
          <mxGeometry x="625" y="380" width="90" height="30" as="geometry" />
        </mxCell>
        <mxCell id="QGpiDjwZLeCe2qHofe9P-70" value="과목별 전체 평균" style="text;html=1;align=center;verticalAlign=middle;whiteSpace=wrap;rounded=0;" parent="1" vertex="1">
          <mxGeometry x="112.5" y="380" width="95" height="30" as="geometry" />
        </mxCell>
        <mxCell id="8EmPDj0JqU0to2I8E0WW-3" style="edgeStyle=orthogonalEdgeStyle;rounded=0;orthogonalLoop=1;jettySize=auto;html=1;exitX=0.5;exitY=1;exitDx=0;exitDy=0;entryX=0.5;entryY=0;entryDx=0;entryDy=0;" edge="1" parent="1" source="8EmPDj0JqU0to2I8E0WW-1" target="8EmPDj0JqU0to2I8E0WW-2">
          <mxGeometry relative="1" as="geometry" />
        </mxCell>
        <mxCell id="8EmPDj0JqU0to2I8E0WW-1" value="출력" style="rounded=0;whiteSpace=wrap;html=1;" vertex="1" parent="1">
          <mxGeometry x="340" y="1050" width="120" height="60" as="geometry" />
        </mxCell>
        <mxCell id="8EmPDj0JqU0to2I8E0WW-2" value="종료" style="ellipse;whiteSpace=wrap;html=1;" vertex="1" parent="1">
          <mxGeometry x="340" y="1160" width="120" height="80" as="geometry" />
        </mxCell>
      </root>
    </mxGraphModel>
  </diagram>
</mxfile>
